<svg width="22" height="22" viewBox="0 0 22 22" fill="none" xmlns="http://www.w3.org/2000/svg">
<g clip-path="url(#clip0_420_56)">
<path d="M10.4954 12.8532C10.5267 12.853 10.5579 12.8511 10.5892 12.8502C10.5252 12.8016 10.4629 12.7426 10.4056 12.6706C10.3915 12.6529 10.3779 12.6355 10.3655 12.6178L10.3587 12.8248C10.3586 12.8346 10.3588 12.8441 10.3587 12.8532H10.4954Z" stroke="#9F9F9F" stroke-width="2"/>
<mask id="path-2-inside-1_420_56" fill="white">
<path d="M3.74688 3.61368C2.13555 3.81993 0.760552 4.9543 0.22774 6.50977C-0.0042914 7.18868 5.48071e-06 7.09414 5.48071e-06 12.9981C5.48071e-06 18.2617 0.00430236 18.4766 0.0816461 18.7859C0.326568 19.7484 1.03985 20.4574 1.98946 20.6938C2.39766 20.7926 3.00782 20.7625 3.41602 20.6164C3.84571 20.466 4.10352 20.2898 4.84258 19.6238L5.49141 19.0395L10.2566 19.0266L15.0176 19.0137L15.4043 18.8934C16.9426 18.4164 18.0211 17.325 18.4207 15.8297C18.5281 15.4215 18.5367 15.3484 18.5539 14.0723C18.5711 12.5941 18.5625 12.5125 18.3176 12.2418C17.991 11.8766 17.4324 11.8723 17.093 12.2332C16.8566 12.4781 16.8438 12.5684 16.8438 13.8488C16.8438 14.8715 16.8309 15.0691 16.7621 15.3484C16.5301 16.2465 15.9199 16.9039 15.0176 17.2176C14.8199 17.2863 14.416 17.2949 9.86133 17.3164C5.35821 17.3379 4.90704 17.3422 4.79102 17.4109C4.71797 17.4496 4.30977 17.7934 3.88868 18.1758C3.46329 18.5582 3.0379 18.9063 2.94336 18.9535C2.6254 19.1039 2.17852 19.0223 1.94649 18.7731C1.70586 18.5109 1.71876 18.8074 1.71876 12.9895C1.71876 7.11563 1.71016 7.32188 1.97657 6.77188C2.29454 6.10586 2.83165 5.6461 3.61368 5.38828C3.82852 5.31524 4.1379 5.30664 7.82461 5.28516L11.7992 5.26368L11.9797 5.14336C12.2762 4.95 12.4266 4.55469 12.332 4.20664C12.2676 3.96602 11.9883 3.67813 11.752 3.61368C11.55 3.55782 4.18086 3.55782 3.74688 3.61368Z"/>
</mask>
<path d="M3.74688 3.61368L4.0022 5.59731L4.00081 5.59749L3.74688 3.61368ZM0.22774 6.50977L-1.66478 5.86296L-1.66434 5.86166L0.22774 6.50977ZM0.0816461 18.7859L-1.8566 19.2792L-1.85864 19.271L0.0816461 18.7859ZM1.98946 20.6938L1.51883 22.6376L1.50645 22.6346L1.98946 20.6938ZM3.41602 20.6164L2.74208 18.7333L2.75532 18.7287L3.41602 20.6164ZM4.84258 19.6238L3.5037 18.1381L3.50411 18.1377L4.84258 19.6238ZM5.49141 19.0395L4.15294 17.5534L4.72121 17.0415L5.486 17.0395L5.49141 19.0395ZM10.2566 19.0266L10.2621 21.0266L10.2621 21.0266L10.2566 19.0266ZM15.0176 19.0137L15.6117 20.9234L15.3242 21.0129L15.023 21.0137L15.0176 19.0137ZM15.4043 18.8934L14.8102 16.9836L14.812 16.9831L15.4043 18.8934ZM18.4207 15.8297L20.3549 16.3387L20.3529 16.3461L18.4207 15.8297ZM18.5539 14.0723L20.5538 14.0955L20.5537 14.0992L18.5539 14.0723ZM18.3176 12.2418L16.8345 13.5837L16.8266 13.5749L18.3176 12.2418ZM17.093 12.2332L18.5499 13.6034L18.5411 13.6127L18.5322 13.6219L17.093 12.2332ZM16.7621 15.3484L18.7041 15.8265L18.7014 15.8376L18.6985 15.8488L16.7621 15.3484ZM15.0176 17.2176L14.3605 15.3286L14.3609 15.3285L15.0176 17.2176ZM9.86133 17.3164L9.85179 15.3164L9.8519 15.3164L9.86133 17.3164ZM4.79102 17.4109L5.81063 19.1315L5.76928 19.156L5.7268 19.1785L4.79102 17.4109ZM3.88868 18.1758L5.23329 19.6564L5.22578 19.6631L3.88868 18.1758ZM2.94336 18.9535L3.83779 20.7424L3.81824 20.7521L3.79849 20.7615L2.94336 18.9535ZM1.94649 18.7731L0.482666 20.1359L0.473184 20.1256L1.94649 18.7731ZM1.97657 6.77188L3.78146 7.63357L3.77653 7.64374L1.97657 6.77188ZM3.61368 5.38828L4.25748 7.28183L4.24869 7.28482L4.23987 7.28773L3.61368 5.38828ZM7.82461 5.28516L7.81296 3.28519L7.8138 3.28519L7.82461 5.28516ZM11.7992 5.26368L12.9086 6.92778L12.4097 7.2604L11.81 7.26365L11.7992 5.26368ZM11.9797 5.14336L10.8703 3.47926L10.8787 3.47366L10.8872 3.46814L11.9797 5.14336ZM12.332 4.20664L10.4019 4.73087L10.4001 4.72412L12.332 4.20664ZM11.752 3.61368L11.2257 5.54322L11.2188 5.5413L11.752 3.61368ZM3.74688 3.61368L4.00081 5.59749C3.16056 5.70504 2.41065 6.30884 2.11981 7.15788L0.22774 6.50977L-1.66434 5.86166C-0.889544 3.59977 1.11054 1.93481 3.49295 1.62986L3.74688 3.61368ZM0.22774 6.50977L2.12026 7.15658C2.05557 7.34587 2.06378 7.32767 2.06257 7.33439C2.05629 7.36927 2.0387 7.49083 2.02564 7.86438C1.9993 8.6182 2.00001 10.019 2.00001 12.9981H5.48071e-06H-1.99999C-1.99999 10.0732 -2.00144 8.56931 -1.97192 7.72468C-1.95704 7.29902 -1.9322 6.94792 -1.87404 6.62509C-1.81079 6.27409 -1.7161 6.01312 -1.66478 5.86296L0.22774 6.50977ZM5.48071e-06 12.9981H2.00001C2.00001 15.6386 2.00114 16.9891 2.01162 17.7212C2.01695 18.0935 2.02429 18.2592 2.03031 18.3371C2.03272 18.3682 2.03339 18.3639 2.02947 18.34C2.02484 18.3119 2.01953 18.2913 2.02193 18.3009L0.0816461 18.7859L-1.85864 19.271C-1.96107 18.8613 -1.9775 18.51 -1.98797 17.7785C-1.99898 17.0099 -1.99999 15.6212 -1.99999 12.9981H5.48071e-06ZM0.0816461 18.7859L2.01988 18.2927C2.0846 18.5471 2.24288 18.6958 2.47246 18.753L1.98946 20.6938L1.50645 22.6346C-0.163186 22.219 -1.43146 20.9498 -1.85659 19.2792L0.0816461 18.7859ZM1.98946 20.6938L2.46007 18.7499C2.43434 18.7437 2.43726 18.7466 2.47218 18.7492C2.50444 18.7515 2.54794 18.7523 2.5974 18.7497C2.64684 18.7471 2.69048 18.7417 2.72333 18.7358C2.75852 18.7294 2.76348 18.7257 2.74209 18.7334L3.41602 20.6164L4.08995 22.4994C3.31333 22.7774 2.30528 22.828 1.51884 22.6376L1.98946 20.6938ZM3.41602 20.6164L2.75532 18.7287C2.80472 18.7114 2.81968 18.7038 2.82184 18.7027C2.82298 18.7021 2.83672 18.6956 2.87312 18.6703C2.96944 18.6035 3.13627 18.4692 3.5037 18.1381L4.84258 19.6238L6.18147 21.1096C5.41539 21.7999 4.90774 22.2133 4.07672 22.5041L3.41602 20.6164ZM4.84258 19.6238L3.50411 18.1377L4.15294 17.5534L5.49141 19.0395L6.82988 20.5256L6.18106 21.1099L4.84258 19.6238ZM5.49141 19.0395L5.486 17.0395L10.2512 17.0266L10.2566 19.0266L10.2621 21.0266L5.49682 21.0394L5.49141 19.0395ZM10.2566 19.0266L10.2512 17.0266L15.0122 17.0137L15.0176 19.0137L15.023 21.0137L10.2621 21.0266L10.2566 19.0266ZM15.0176 19.0137L14.4234 17.104L14.8102 16.9836L15.4043 18.8934L15.9984 20.8031L15.6117 20.9234L15.0176 19.0137ZM15.4043 18.8934L14.812 16.9831C15.7305 16.6983 16.276 16.1084 16.4885 15.3133L18.4207 15.8297L20.3529 16.3461C19.7661 18.5416 18.1547 20.1345 15.9966 20.8036L15.4043 18.8934ZM18.4207 15.8297L16.4866 15.3207C16.5135 15.2184 16.5183 15.1958 16.5204 15.1849C16.5208 15.1824 16.5213 15.1796 16.5221 15.1734C16.5231 15.1663 16.5249 15.1507 16.5271 15.122C16.5387 14.9721 16.5451 14.7107 16.5541 14.0453L18.5539 14.0723L20.5537 14.0992C20.5455 14.71 20.539 15.1232 20.5152 15.4309C20.4841 15.8322 20.4218 16.0841 20.3549 16.3387L18.4207 15.8297ZM18.5539 14.0723L16.554 14.049C16.5584 13.6748 16.5607 13.415 16.5588 13.2209C16.5567 13.0162 16.5499 12.956 16.5502 12.9584C16.5532 12.9815 16.5758 13.1407 16.6774 13.3404C16.7708 13.5242 16.8798 13.6337 16.8345 13.5836L18.3176 12.2418L19.8007 10.9C19.8778 10.9853 20.0798 11.2065 20.2432 11.5279C20.4146 11.8653 20.4843 12.188 20.5178 12.4501C20.5709 12.8643 20.5615 13.4353 20.5538 14.0955L18.5539 14.0723ZM18.3176 12.2418L16.8266 13.5749C17.2958 14.0996 18.1004 14.0813 18.5499 13.6034L17.093 12.2332L15.6361 10.863C16.7644 9.66322 18.6862 9.65351 19.8085 10.9087L18.3176 12.2418ZM17.093 12.2332L18.5322 13.6219C18.4968 13.6586 18.6086 13.5521 18.7086 13.3694C18.8182 13.1693 18.8494 13.003 18.8565 12.9564C18.8594 12.9378 18.8581 12.9402 18.8557 12.9754C18.8533 13.0098 18.8508 13.0624 18.8488 13.1416C18.8447 13.3044 18.8438 13.5249 18.8438 13.8488H16.8438H14.8438C14.8438 13.2877 14.841 12.7522 14.9029 12.3489C14.9429 12.0892 15.0216 11.7743 15.2 11.4485C15.369 11.1399 15.571 10.9302 15.6537 10.8445L17.093 12.2332ZM16.8438 13.8488H18.8438C18.8438 14.8112 18.8419 15.2667 18.7041 15.8265L16.7621 15.3484L14.8201 14.8704C14.8239 14.8551 14.8251 14.8489 14.8254 14.8477C14.8255 14.8471 14.8255 14.8472 14.8254 14.8477C14.8253 14.8483 14.8252 14.8486 14.8253 14.8484C14.8253 14.8483 14.8255 14.847 14.8258 14.8445C14.8261 14.8419 14.8266 14.8376 14.8272 14.8313C14.8284 14.8186 14.83 14.7979 14.8318 14.7662C14.84 14.6191 14.8438 14.3703 14.8438 13.8488H16.8438ZM16.7621 15.3484L18.6985 15.8488C18.2948 17.4111 17.1924 18.579 15.6743 19.1067L15.0176 17.2176L14.3609 15.3285C14.6474 15.2289 14.7653 15.0818 14.8257 14.8481L16.7621 15.3484ZM15.0176 17.2176L15.6746 19.1066C15.204 19.2703 14.6712 19.2735 14.112 19.2843C13.3986 19.2981 12.1407 19.3057 9.87077 19.3164L9.86133 17.3164L9.8519 15.3164C12.1366 15.3057 13.358 15.2982 14.0347 15.2851C14.8655 15.269 14.6335 15.2336 14.3605 15.3286L15.0176 17.2176ZM9.86133 17.3164L9.87087 19.3164C7.61107 19.3272 6.3902 19.3336 5.7168 19.3456C5.3701 19.3518 5.21917 19.3589 5.1598 19.3637C4.9964 19.3769 5.39151 19.3799 5.81063 19.1315L4.79102 17.4109L3.77142 15.6904C4.24854 15.4076 4.74355 15.3843 4.8381 15.3767C5.03668 15.3606 5.30174 15.3524 5.64522 15.3463C6.35219 15.3336 7.60847 15.3271 9.85179 15.3164L9.86133 17.3164ZM4.79102 17.4109L5.7268 19.1785C5.80839 19.1353 5.86621 19.0969 5.88265 19.086C5.9064 19.0701 5.92241 19.0585 5.92752 19.0548C5.93769 19.0474 5.93655 19.0478 5.91988 19.061C5.88809 19.0862 5.83509 19.1296 5.76203 19.1914C5.61791 19.3133 5.42827 19.4793 5.23327 19.6563L3.88868 18.1758L2.54408 16.6952C2.77017 16.4899 2.99518 16.2927 3.17871 16.1375C3.26947 16.0607 3.35852 15.987 3.43697 15.9249C3.44714 15.9169 3.64098 15.7568 3.85524 15.6434L4.79102 17.4109ZM3.88868 18.1758L5.22578 19.6631C4.99317 19.8722 4.75787 20.0744 4.56132 20.2359C4.46405 20.3158 4.36639 20.3938 4.27771 20.4609C4.24475 20.4858 4.05464 20.634 3.83779 20.7424L2.94336 18.9535L2.04894 17.1647C1.97816 17.2001 1.92739 17.2312 1.90761 17.2435C1.88345 17.2585 1.86696 17.2698 1.86065 17.2741C1.84854 17.2824 1.84853 17.2829 1.86455 17.2708C1.89551 17.2474 1.94851 17.2056 2.02257 17.1448C2.1687 17.0248 2.3588 16.8618 2.55158 16.6884L3.88868 18.1758ZM2.94336 18.9535L3.79849 20.7615C3.20092 21.0441 2.57495 21.0753 2.05545 20.981C1.53913 20.8872 0.948609 20.6363 0.482702 20.1359L1.94649 18.7731L3.41028 17.4102C3.1764 17.159 2.92534 17.0735 2.76996 17.0453C2.61139 17.0165 2.36784 17.0133 2.08824 17.1455L2.94336 18.9535ZM1.94649 18.7731L0.473184 20.1256C0.577815 20.2396 0.111011 19.8192 -0.0918953 19.1975C-0.223469 18.7944 -0.243913 18.3537 -0.256081 18.0429C-0.28495 17.3056 -0.281245 15.8627 -0.281245 12.9895H1.71876H3.71876C3.71876 15.9342 3.71602 17.252 3.74086 17.8865C3.75555 18.2616 3.777 18.1595 3.71068 17.9564C3.57303 17.5346 3.19485 17.1755 3.4198 17.4205L1.94649 18.7731ZM1.71876 12.9895H-0.281245C-0.281245 10.0869 -0.28392 8.60692 -0.250524 7.80139C-0.234052 7.40406 -0.205373 7.02781 -0.118774 6.67396C-0.0206322 6.27295 0.142752 5.96991 0.176605 5.90002L1.97657 6.77188L3.77653 7.64374C3.67718 7.84884 3.74174 7.72628 3.76656 7.62484C3.77985 7.57056 3.76072 7.61299 3.74604 7.96708C3.71713 8.66438 3.71876 10.0182 3.71876 12.9895H1.71876ZM1.97657 6.77188L0.171709 5.9102C0.747469 4.70422 1.74008 3.90008 2.98749 3.48884L3.61368 5.38828L4.23987 7.28773C3.92322 7.39212 3.8416 7.50751 3.78143 7.63355L1.97657 6.77188ZM3.61368 5.38828L2.96987 3.49474C3.41811 3.34234 3.86762 3.33036 4.36778 3.318C4.95655 3.30345 5.97919 3.29588 7.81296 3.28519L7.82461 5.28516L7.83627 7.28513C5.98332 7.29592 5.00792 7.3034 4.46661 7.31678C3.83669 7.33234 4.02409 7.36118 4.25748 7.28183L3.61368 5.38828ZM7.82461 5.28516L7.8138 3.28519L11.7884 3.2637L11.7992 5.26368L11.81 7.26365L7.83542 7.28513L7.82461 5.28516ZM11.7992 5.26368L10.6898 3.59958L10.8703 3.47926L11.9797 5.14336L13.0891 6.80746L12.9086 6.92778L11.7992 5.26368ZM11.9797 5.14336L10.8872 3.46814C10.6454 3.6258 10.5035 3.83565 10.4313 4.0268C10.3589 4.21879 10.3294 4.46387 10.402 4.73086L12.332 4.20664L14.2621 3.68243C14.5815 4.85826 14.1035 6.14601 13.0722 6.81858L11.9797 5.14336ZM12.332 4.20664L10.4001 4.72412C10.4484 4.90441 10.5164 5.02587 10.5551 5.08732C10.5974 5.15454 10.6388 5.20372 10.6749 5.24074C10.7108 5.27756 10.7613 5.32262 10.8328 5.36975C10.898 5.41269 11.0294 5.48967 11.2257 5.5432L11.752 3.61368L12.2782 1.68415C12.8625 1.84352 13.2884 2.19157 13.538 2.44745C13.7916 2.70737 14.1139 3.12914 14.2639 3.68917L12.332 4.20664ZM11.752 3.61368L11.2188 5.5413C11.3599 5.58034 11.4726 5.59354 11.4832 5.59489C11.5176 5.5993 11.542 5.60133 11.5484 5.60186C11.5624 5.60301 11.5625 5.60272 11.5399 5.60166C11.4978 5.59969 11.4261 5.59728 11.3206 5.59479C11.1129 5.58988 10.8177 5.58562 10.4578 5.58216C9.74036 5.57526 8.79361 5.57178 7.83643 5.57178C6.87939 5.57178 5.91778 5.57526 5.17086 5.58217C4.79659 5.58563 4.48167 5.5899 4.25018 5.59488C3.95123 5.60132 3.92328 5.60747 4.0022 5.59731L3.74688 3.61368L3.49156 1.63004C3.67898 1.60592 3.97624 1.59985 4.16415 1.59581C4.41952 1.59031 4.75309 1.58586 5.13387 1.58234C5.89702 1.57528 6.8717 1.57178 7.83643 1.57178C8.80103 1.57178 9.76155 1.57528 10.4962 1.58235C10.8624 1.58587 11.1794 1.59034 11.415 1.59591C11.5312 1.59865 11.639 1.60192 11.7272 1.60605C11.7698 1.60805 11.8228 1.61092 11.8765 1.61535C11.9028 1.61751 11.9438 1.6212 11.9914 1.6273C12.0152 1.63035 12.1377 1.64527 12.2851 1.68605L11.752 3.61368Z" fill="#9F9F9F" mask="url(#path-2-inside-1_420_56)"/>
</g>
<defs>
<clipPath id="clip0_420_56">
<rect width="22" height="22" fill="white"/>
</clipPath>
</defs>
</svg>
