<svg width="31" height="30" viewBox="0 0 31 30" fill="none" xmlns="http://www.w3.org/2000/svg">
<g clip-path="url(#clip0_420_3071)">
<path d="M13.8887 4.42967C13.7598 4.44139 13.3262 4.48241 12.9219 4.51756C10.0742 4.76952 7.53125 5.58397 6.48242 6.58592C5.83203 7.21288 5.1875 8.29686 4.50781 9.90233L4.20312 10.6348L2.59766 10.664C1.17969 10.6875 0.980469 10.7051 0.839844 10.7988C0.675781 10.916 0.5 11.2265 0.5 11.414C0.5 11.6601 0.980469 13.8047 1.0625 13.9336C1.23828 14.2031 1.48438 14.2969 2.03516 14.2969H2.54492L2.24023 14.748C1.89453 15.2578 1.60742 15.9023 1.45508 16.5058C1.30273 17.1094 1.32031 18.4512 1.49023 19.0723C1.71875 19.916 2.22266 20.8242 2.75 21.3223L2.96094 21.5273V23.1094C2.96094 24.8789 2.99023 25.0078 3.36523 25.3301C3.68164 25.5937 3.86328 25.6172 5.60352 25.5937L7.2207 25.5762L7.43164 25.418C7.85938 25.084 7.90625 24.9609 7.94141 24.082L7.9707 23.291H15.5H23.0293L23.0586 24.082C23.0938 24.9609 23.1406 25.084 23.5684 25.418L23.7793 25.5762L25.3965 25.5937C27.1367 25.6172 27.3184 25.5937 27.6348 25.3301C28.0098 25.0137 28.0391 24.873 28.0391 23.1504V21.6094L28.3203 21.2988C28.9004 20.666 29.2754 19.9687 29.5098 19.0957C29.6973 18.4101 29.6973 17.1211 29.5156 16.4473C29.3516 15.8555 29.0059 15.123 28.6602 14.6601L28.3906 14.2969H28.9355C29.5156 14.2969 29.7559 14.209 29.9375 13.9336C30.0254 13.8047 30.5 11.666 30.5 11.414C30.5 11.2265 30.3301 10.916 30.1602 10.7988C30.0195 10.7051 29.8203 10.6875 28.3965 10.664L26.7969 10.6348L26.4922 9.90233C25.8242 8.28514 25.2734 7.36522 24.5586 6.64452C24.1484 6.24022 23.9902 6.12889 23.4102 5.84178C22.0977 5.19725 20.5332 4.79295 18.3711 4.53514C17.627 4.45311 14.4688 4.37108 13.8887 4.42967ZM18.1953 6.8203C20.1406 7.06053 21.5117 7.42381 22.502 7.95702C23.041 8.24998 23.3691 8.66014 23.8496 9.63866C24.1953 10.3359 24.7578 11.707 24.7578 11.8359C24.7578 11.8711 21.3477 11.8945 15.5 11.8945C8.92578 11.8945 6.24219 11.8769 6.24219 11.8301C6.24219 11.7949 6.35938 11.4726 6.5 11.1152C7.0625 9.67967 7.63672 8.61327 8.03516 8.26756C8.88477 7.51756 11.1582 6.92577 14.0059 6.71483C14.6738 6.66209 17.5039 6.73827 18.1953 6.8203ZM7.39062 15.7676C9.17773 16.0957 9.86914 18.293 8.58594 19.5703C7.71289 20.4492 6.29492 20.4492 5.42188 19.5703C4.16211 18.3164 4.77734 16.1719 6.50586 15.791C6.95117 15.6914 6.97461 15.6914 7.39062 15.7676ZM24.8516 15.8848C26.0469 16.3301 26.6152 17.7656 26.0645 18.9316C25.502 20.1269 24.1074 20.5723 22.9121 19.9394C22.625 19.7871 22.1738 19.3183 22.0156 19.0078C21.5879 18.1523 21.7578 17.0683 22.4316 16.3945C23.0703 15.7617 23.9902 15.5683 24.8516 15.8848Z" fill="#FFCC00"/>
</g>
<defs>
<clipPath id="clip0_420_3071">
<rect width="30" height="30" fill="white" transform="translate(0.5)"/>
</clipPath>
</defs>
</svg>
