<svg width="16" height="16" viewBox="0 0 16 16" fill="none" xmlns="http://www.w3.org/2000/svg">
<g clip-path="url(#clip0_420_145)">
<path d="M9.89057 0.0468812C9.44995 0.143756 9.08745 0.346881 8.74682 0.690631C8.52807 0.909381 8.44995 1.01563 8.3312 1.25001C8.24995 1.40938 8.17182 1.60313 8.15307 1.67501L8.1187 1.81251H4.2687H0.418699L0.281199 1.88126C0.0905744 1.97813 -0.00630063 2.15001 0.00932437 2.35313C0.0249494 2.52188 0.0936994 2.63751 0.249949 2.74063L0.353074 2.81251H4.2312H8.10932L8.17807 3.04063C8.37495 3.68438 8.9312 4.25938 9.58745 4.50001C10.2218 4.73126 10.8656 4.68751 11.4781 4.36876C12.0156 4.08751 12.4968 3.48126 12.6406 2.89688L12.6624 2.81251H14.1562H15.6468L15.7499 2.74063C15.9062 2.63751 15.9749 2.52188 15.9906 2.35313C16.0062 2.15001 15.9093 1.97813 15.7187 1.88126C15.5812 1.81251 15.5718 1.81251 14.1187 1.81251H12.6593L12.6249 1.67813C12.5624 1.44376 12.3531 1.05313 12.1718 0.834381C11.7312 0.303131 11.0562 -0.00624418 10.3531 0.00313091C10.2031 0.0062561 9.9937 0.0250058 9.89057 0.0468812ZM10.7843 1.05938C11.2656 1.20938 11.6062 1.60626 11.6937 2.12188C11.8406 2.97501 11.0624 3.76563 10.2093 3.63126C9.42182 3.50938 8.9062 2.73438 9.10932 1.98438C9.17495 1.74376 9.34995 1.45938 9.5187 1.31876C9.6562 1.20313 9.92182 1.06563 10.0718 1.03126C10.2624 0.984381 10.5843 1.00001 10.7843 1.05938Z" fill="#A9ACB2" stroke="#A9ACB2" stroke-width="0.2"/>
<path d="M5.04688 5.75C4.24688 5.95938 3.63438 6.5375 3.3875 7.31875L3.33438 7.49688L1.825 7.50625C0.35625 7.51563 0.315625 7.51875 0.23125 7.58125C0.065625 7.70313 0.015625 7.80313 0.015625 8C0.015625 8.19688 0.065625 8.29688 0.23125 8.41875C0.315625 8.48125 0.35625 8.48438 1.82812 8.49375L3.34063 8.50313L3.39062 8.67813C3.54063 9.19063 3.94688 9.70938 4.41875 9.99688C4.51562 10.0531 4.71563 10.1438 4.86562 10.1969C5.1 10.2781 5.2 10.2938 5.525 10.3063C6 10.325 6.2375 10.275 6.65625 10.0688C7.18125 9.8125 7.64687 9.275 7.81875 8.72813L7.89062 8.5L11.7875 8.49375C15.6656 8.48438 15.6844 8.48438 15.7688 8.41875C15.9344 8.29688 15.9844 8.19688 15.9844 8C15.9844 7.80313 15.9344 7.70313 15.7688 7.58125C15.6844 7.51563 15.6656 7.51563 11.7875 7.50625L7.89062 7.5L7.81875 7.26875C7.64687 6.72188 7.175 6.17813 6.64375 5.92188C6.4875 5.84688 6.26875 5.7625 6.15625 5.7375C5.87188 5.66875 5.325 5.675 5.04688 5.75ZM6.04063 6.74688C6.80938 7.0125 7.15625 7.89063 6.78438 8.61875C6.64062 8.90313 6.37188 9.12813 6.04063 9.25C5.87813 9.30938 5.8 9.31875 5.55625 9.30625C5.3125 9.29688 5.23125 9.27813 5.05312 9.19688C4.3875 8.88438 4.1 8.07813 4.41875 7.42188C4.57188 7.11563 4.8 6.90625 5.14687 6.7625C5.38438 6.66563 5.78125 6.65938 6.04063 6.74688Z" fill="#A9ACB2" stroke="#A9ACB2" stroke-width="0.2"/>
<path d="M9.98432 11.3875C9.13432 11.5531 8.4187 12.175 8.17807 12.9594L8.10932 13.1875H4.2312H0.353074L0.249949 13.2563C0.0936994 13.3625 0.0249494 13.4781 0.00932437 13.6469C-0.00630063 13.85 0.0905744 14.0219 0.281199 14.1188L0.418699 14.1875H4.2687H8.1187L8.15307 14.325C8.17182 14.3969 8.25307 14.5906 8.33432 14.7531C8.57495 15.2375 9.01557 15.6313 9.55932 15.8531C10.4281 16.2063 11.5562 15.9125 12.1687 15.1688C12.3687 14.9281 12.5343 14.6219 12.6093 14.3688L12.6593 14.1875H14.1218C15.5718 14.1875 15.5812 14.1875 15.7187 14.1188C15.9093 14.0219 16.0062 13.85 15.9906 13.6469C15.9749 13.4781 15.9062 13.3625 15.7499 13.2594L15.6468 13.1875H14.1562H12.6687L12.6124 13.0063C12.4968 12.6344 12.3156 12.3469 12.0156 12.0469C11.6999 11.7281 11.4031 11.55 10.9999 11.4406C10.6968 11.3563 10.2656 11.3344 9.98432 11.3875ZM10.6874 12.3938C11.3531 12.5438 11.8062 13.2156 11.6937 13.8781C11.6281 14.2594 11.4281 14.575 11.1218 14.7781C10.5124 15.1844 9.67495 15.0125 9.2812 14.4C8.8562 13.7438 9.09995 12.8406 9.7937 12.5C10.1093 12.3438 10.3468 12.3156 10.6874 12.3938Z" fill="#A9ACB2" stroke="#A9ACB2" stroke-width="0.2"/>
</g>
<defs>
<clipPath id="clip0_420_145">
<rect width="16" height="16" fill="white"/>
</clipPath>
</defs>
</svg>
