<svg width="149" height="30" viewBox="0 0 149 30" fill="none" xmlns="http://www.w3.org/2000/svg">
<path d="M9.21431 0.200954C5.55806 0.817026 2.65181 2.98667 1.12502 6.22774C-0.120516 8.87953 -0.294624 11.3572 0.56252 14.0626C1.79466 17.9197 5.16966 20.7724 9.26788 21.4286C10.2322 21.5894 11.9732 21.5626 12.134 21.3885C12.2277 21.2947 12.0536 19.3661 11.9331 19.1786C11.8795 19.0849 11.25 18.9644 10.5134 18.884C8.4777 18.6697 7.23217 18.2144 5.82591 17.1563C4.08484 15.8438 2.81252 13.1518 2.81252 10.7813C2.81252 8.26346 4.36609 5.49113 6.6027 4.01792C8.95985 2.47774 12.4018 2.38399 15.067 3.79024C16.2322 4.40631 17.5313 5.75899 18.134 6.97774C18.9509 8.62506 19.0313 9.33489 19.1518 15.2679C19.259 20.7858 19.259 20.8661 19.8884 22.1117C20.2768 22.8617 21.3349 23.8394 21.7634 23.8394C21.817 23.8394 21.8304 20.5447 21.8036 16.5001L21.75 9.17417L21.375 7.96881C20.0224 3.54917 16.7545 0.73667 12.2813 0.133991C10.9956 -0.0267239 10.5402 -0.0267239 9.21431 0.200954Z" fill="#F5F5F5"/>
<path d="M14.3304 13.3125C14.3304 19.2991 14.3705 20.7857 14.5313 21.5759C15.2947 25.2188 18.0268 28.1652 21.7366 29.384C24.6429 30.3349 27.5357 30.0804 30.3348 28.6206C31.7143 27.8974 33.5893 26.0893 34.4196 24.6697C35.5848 22.6875 36.1607 20.0893 35.8929 18.0402C35.5312 15.2947 34.5804 13.4063 32.625 11.5447C30.4821 9.52236 26.9732 8.19646 24.5357 8.5045L23.8125 8.59825L23.8929 9.01343C23.933 9.2545 24 9.77682 24.0402 10.192L24.1339 10.942L25.2857 11.0224C27.6563 11.1965 29.2366 11.8527 30.7768 13.3125C31.8482 14.3304 32.625 15.6831 33.0268 17.2099C33.308 18.2813 33.3214 20.4777 33.0402 21.4018C32.3036 23.8393 30.1205 26.0357 27.5491 26.9465C26.3036 27.3884 24.1607 27.3482 22.7009 26.8795C20.7589 26.25 19.2455 25.1518 18.308 23.7322C17.0089 21.7768 16.875 20.8795 16.875 14.6116C16.875 10.2857 16.8482 9.72325 16.6205 9.00003C16.2857 7.90182 15.5759 6.89735 14.7054 6.26789L14.3304 6.01343V13.3125Z" fill="#F5F5F5"/>
<path d="M73.5804 6.75C73.1251 7.20536 73.0983 7.28572 73.1653 7.86161C73.3394 9.38839 75.1742 9.77679 75.8706 8.4375C76.3795 7.45982 75.817 6.45536 74.692 6.33482C74.1162 6.26786 74.0358 6.29464 73.5804 6.75Z" fill="#F5F5F5"/>
<path d="M89.0357 6.68307C88.6473 7.03128 88.5938 7.15182 88.5938 7.76789C88.5938 8.38396 88.6473 8.5045 89.0357 8.85271C89.8125 9.54914 90.9241 9.29468 91.3393 8.317C91.9286 6.88396 90.1875 5.65182 89.0357 6.68307Z" fill="#F5F5F5"/>
<path d="M67.0581 7.192C67.0045 7.23218 66.9643 8.14289 66.9643 9.20093V11.1161H65.7589H64.5402L64.5804 12.0134L64.6206 12.9241L65.7723 12.9643L66.9375 13.0045L66.9911 15.6429C67.0313 18.0268 67.0715 18.3349 67.3259 18.8304C67.6875 19.5 68.2634 20.009 68.9197 20.2232C69.4286 20.3974 71.4643 20.3572 71.759 20.1697C71.8527 20.1161 71.9197 19.7411 71.9197 19.2188V18.375L71.1161 18.442C70.6206 18.4956 70.1652 18.4554 69.9107 18.3482C69.1875 18.0536 69.067 17.5982 69 15.1607L68.9465 12.9911H71.2366H73.5268V16.5268C73.5268 18.4822 73.567 20.0893 73.634 20.1161C73.6875 20.1429 74.1697 20.1429 74.7054 20.1161L75.6697 20.0625V15.5893V11.1161L72.3616 11.0893L69.0402 11.0491L69 9.067L68.9598 7.09825H68.0491C67.5536 7.09825 67.0982 7.13843 67.0581 7.192Z" fill="#F5F5F5"/>
<path d="M95.0492 7.192C94.9956 7.23218 94.9554 8.14289 94.9554 9.18754V11.1027L93.7902 11.1429L92.6117 11.1831V12.0536V12.9241L93.7902 12.9643L94.9554 13.0045V14.9063C94.9554 17.4241 95.1295 18.5357 95.5983 19.2188C96.1474 20.0224 96.9242 20.3572 98.1831 20.3572C98.759 20.3572 99.375 20.3036 99.5625 20.2232C99.884 20.1027 99.9108 20.0357 99.9108 19.2456V18.4018L98.9866 18.4554C98.1295 18.509 98.0492 18.4822 97.6206 18.1072L97.1652 17.7054L97.125 15.3482L97.0849 12.9911H98.5715H100.058L100.768 14.4911C101.17 15.3215 101.826 16.6875 102.228 17.5179L102.978 19.0447L101.719 21.5759C101.022 22.9688 100.446 24.1607 100.446 24.2411C100.446 24.3215 100.875 24.375 101.491 24.375H102.522L105.777 17.8795C107.558 14.3036 109.018 11.317 109.018 11.25C109.018 11.1697 108.563 11.1161 107.933 11.1161H106.848L105.482 13.9554L104.103 16.7947L103.567 15.6429C103.259 15.0134 102.67 13.7277 102.241 12.8036L101.464 11.1161H99.2813H97.0983V9.10718V7.09825H96.1206C95.5715 7.09825 95.0893 7.13843 95.0492 7.192Z" fill="#F5F5F5"/>
<path d="M110.625 13.5938V20.0893H111.629C112.607 20.0893 112.634 20.0759 112.634 19.7545C112.634 19.3795 112.795 19.3259 113.022 19.6072C113.411 20.0759 114.348 20.3572 115.5 20.3572C116.464 20.3572 116.719 20.3036 117.335 19.9822C119.036 19.0982 119.987 16.8884 119.598 14.7322C119.183 12.3884 117.844 11.0224 115.821 10.875C114.737 10.7947 113.893 11.009 113.17 11.5313L112.634 11.9197V9.50896V7.09825H111.629H110.625V13.5938ZM116.304 13.1786C117.134 13.6607 117.495 14.4107 117.495 15.6161C117.495 16.4063 117.442 16.6741 117.147 17.1697C116.745 17.8661 116.384 18.134 115.58 18.3482C114.75 18.5759 113.826 18.3215 113.156 17.6786L112.634 17.1831V15.6831C112.634 14.3706 112.674 14.1161 112.915 13.7813C113.571 12.8438 115.232 12.5491 116.304 13.1786Z" fill="#F5F5F5"/>
<path d="M137.946 9.52236V11.9331L137.478 11.5715C136.821 11.0759 136.138 10.8616 135.174 10.8482C133.5 10.8482 132.121 11.7188 131.411 13.2322C131.076 13.9286 131.049 14.1429 131.049 15.6027C131.049 17.1563 131.063 17.25 131.491 18.1072C132.268 19.7009 133.379 20.3572 135.254 20.3572C136.313 20.3572 137.156 20.0893 137.531 19.6474C137.786 19.3259 137.92 19.3661 137.973 19.7813C138.013 20.1563 138.027 20.1563 138.951 20.1295L139.888 20.1161L139.929 13.6072L139.955 7.09825H138.951H137.946V9.52236ZM136.862 13.125C137.826 13.6072 137.946 13.8884 137.946 15.6697V17.25L137.438 17.7054C136.152 18.8572 134.103 18.5491 133.393 17.0893C133.045 16.3661 133.004 15.0402 133.313 14.3304C133.513 13.8616 134.036 13.2857 134.531 13.0179C134.987 12.7634 136.286 12.8304 136.862 13.125Z" fill="#F5F5F5"/>
<path d="M47.3571 11.0625C46.4464 11.3438 45.4151 12.4018 45 13.4599C44.7455 14.1161 44.6785 14.5179 44.6785 15.6697C44.6785 16.9286 44.7187 17.1697 45.0535 17.9063C45.5089 18.9108 46.4196 19.8081 47.3035 20.1429C47.7723 20.3304 48.2009 20.3706 49.058 20.3438C50.0491 20.2902 50.2634 20.2366 50.866 19.8616L51.5625 19.4331V19.7545C51.5625 20.0491 51.616 20.0759 52.5803 20.1161C53.1428 20.1429 53.625 20.1295 53.6517 20.1027C53.6785 20.0759 53.7053 18.0268 53.7053 15.5759V11.1027L52.6741 11.1429C51.6428 11.1831 51.6294 11.1831 51.5893 11.5447L51.5491 11.9197L51.0535 11.5313C50.7857 11.317 50.3571 11.0759 50.1026 10.9956C49.4732 10.7947 48.1473 10.8215 47.3571 11.0625ZM50.3169 13.0045C50.5178 13.0715 50.8928 13.3259 51.1339 13.567L51.5625 13.9822V15.6027C51.5625 17.4375 51.4821 17.6384 50.5848 18.1072C49.8348 18.4956 48.7232 18.509 48.0803 18.134C47.3437 17.7054 46.8616 16.9152 46.7812 15.9777C46.6607 14.6652 47.183 13.5402 48.1071 13.0849C48.616 12.8304 49.7544 12.7902 50.3169 13.0045Z" fill="#F5F5F5"/>
<path d="M58.433 11.0358C56.7455 11.5715 55.6741 12.9242 55.4464 14.826C55.1384 17.2501 56.2098 19.3929 58.0714 20.0894C58.9821 20.4242 60.616 20.451 61.5134 20.1429C62.5178 19.8081 63.75 18.5626 63.75 17.8929C63.75 17.7724 63.4285 17.5983 62.8794 17.4108L62.0223 17.1295L61.4464 17.7188C59.9464 19.2858 57.75 18.3215 57.4821 15.9911C57.3482 14.8126 57.9375 13.5001 58.7946 13.0581C59.2902 12.8036 60.4419 12.8036 60.9375 13.0581C61.1384 13.1653 61.4732 13.4465 61.6473 13.6876L61.9821 14.1161L62.8125 13.8617C63.2678 13.7278 63.6696 13.5269 63.7098 13.4331C63.8303 13.1385 63.1071 12.0804 62.5044 11.6786C61.3527 10.8885 59.7321 10.634 58.433 11.0358Z" fill="#F5F5F5"/>
<path d="M124.152 10.9688C123.174 11.2768 122.263 11.9866 121.714 12.8706C121.045 13.9554 120.884 15.9643 121.353 17.4911C121.58 18.2411 121.768 18.5224 122.397 19.1518C123.402 20.1563 124.125 20.4107 125.813 20.3304C127.232 20.2634 128.049 19.942 128.88 19.1116L129.402 18.5893L128.786 17.9599C128.237 17.4107 128.143 17.3706 128.022 17.5715C127.795 17.9866 126.75 18.4956 125.987 18.5759C124.741 18.7099 123.79 18.2143 123.335 17.2232C122.853 16.1518 122.692 16.2188 126.268 16.1786L129.442 16.1384L129.429 14.9331C129.415 13.9822 129.348 13.5938 129.121 13.0982C128.705 12.2277 127.848 11.4375 127.005 11.1161C126.268 10.8349 124.821 10.7679 124.152 10.9688ZM126.549 12.9777C126.991 13.2857 127.339 13.7813 127.446 14.2232L127.527 14.5982H125.304C124.085 14.5982 123.08 14.5581 123.08 14.5045C123.08 14.4509 123.201 14.1563 123.348 13.8482C123.79 12.9643 124.567 12.5491 125.625 12.6697C125.96 12.7099 126.375 12.8438 126.549 12.9777Z" fill="#F5F5F5"/>
<path d="M143.853 11.0759C142.339 11.6116 141.589 13.2589 142.179 14.7455C142.5 15.5357 143.183 15.9777 144.804 16.4063C146.237 16.7946 146.786 17.1563 146.786 17.692C146.786 18.1205 146.21 18.5893 145.554 18.683C144.844 18.7902 143.491 18.4821 142.835 18.0804L142.406 17.8125L142.112 18.5759C141.777 19.4598 141.777 19.4732 142.902 20.0089C143.411 20.25 143.745 20.2902 145.112 20.2902C146.531 20.2902 146.799 20.25 147.375 19.9688C149.384 18.9777 149.357 15.9107 147.335 15.1071C147.147 15.0268 146.451 14.8259 145.795 14.6518C145.138 14.4777 144.495 14.2366 144.348 14.1161C144.027 13.808 144.04 13.192 144.388 12.8438C144.629 12.6027 144.79 12.5625 145.701 12.6161C146.411 12.6429 146.906 12.75 147.308 12.9509C147.643 13.1116 147.924 13.2321 147.937 13.2188C147.951 13.2054 148.098 12.8571 148.245 12.4554C148.58 11.5714 148.54 11.5313 147.214 11.1161C146.183 10.7946 144.696 10.7813 143.853 11.0759Z" fill="#F5F5F5"/>
<path d="M77.1429 11.2635C77.1429 11.384 81.067 19.8215 81.2411 20.0626C81.2813 20.1295 83.2902 20.1429 83.3571 20.076C83.4643 19.9688 87.4554 11.3572 87.4554 11.2233C87.4554 11.1563 86.9598 11.1161 86.3572 11.1429L85.2589 11.1831L83.8259 14.3036C83.0491 16.0313 82.3661 17.4376 82.3125 17.451C82.2589 17.4644 81.5759 16.0447 80.7857 14.2903L79.3661 11.1161H78.2545C77.5045 11.1161 77.1429 11.1697 77.1429 11.2635Z" fill="#F5F5F5"/>
<path d="M88.9285 15.5893V20.0625L89.8794 20.1161C90.4017 20.1429 90.8839 20.1161 90.9508 20.0759C91.0178 20.0357 91.058 18.1473 91.0446 15.5893L91.0044 11.183L89.9732 11.1429L88.9285 11.1027V15.5893Z" fill="#F5F5F5"/>
</svg>
