<svg width="29" height="28" viewBox="0 0 29 28" fill="none" xmlns="http://www.w3.org/2000/svg">
<path d="M10.4531 1.90312C10.3656 1.99609 10.2891 2.1164 10.2891 2.17109C10.2891 2.23124 10.3711 2.41171 10.475 2.57577C11.4156 4.10155 11.7383 4.69765 12.2031 5.7914C13.2914 8.35077 13.7891 10.8226 13.7891 13.6719C13.7891 15.9141 13.4938 17.8445 12.8211 19.9664C12.5367 20.8797 12.5367 21.0055 12.832 21.1476C13.0453 21.2516 12.9906 21.268 14.0352 20.7922C15.2602 20.2344 16.7586 19.8023 18.2734 19.5672C18.9461 19.4633 19.2906 19.4469 20.543 19.4469C22.1289 19.4469 22.8016 19.518 24.1414 19.8242C24.7867 19.9719 24.9289 19.9555 25.082 19.7203C25.1641 19.6 25.1641 19.5234 25.1094 19.0476C24.7813 16.2531 23.8625 13.568 22.3914 11.1016C19.9031 6.93984 16.0641 3.68593 11.7438 2.07812C10.732 1.70077 10.6664 1.6953 10.4531 1.90312Z" fill="#00C7BE"/>
<path d="M9.93905 4.39142C9.8242 4.50626 9.81327 4.58282 9.77499 5.3047C9.52889 10.4453 7.77342 15.3453 4.71639 19.4414C4.42108 19.8297 4.16952 20.1961 4.14764 20.2508C4.10389 20.3711 4.19139 20.6117 4.31717 20.7047C4.44842 20.8086 4.6453 20.7977 5.01717 20.6719C5.72264 20.4258 6.38983 20.3274 7.30858 20.3219C8.48983 20.3219 9.20624 20.4586 10.3 20.8961C11.0711 21.2078 11.1312 21.1695 11.4648 20.1524C12.1594 18.0031 12.4711 15.9633 12.4765 13.557C12.4765 11.1508 12.1539 8.96329 11.4594 6.72657C11.1476 5.72579 10.6281 4.44064 10.4914 4.34767C10.3219 4.22736 10.0867 4.24376 9.93905 4.39142Z" fill="#00C7BE"/>
<path d="M13.7891 22.2086L3.04297 22.6406L2.88984 22.8047C2.80781 22.8977 2.74219 23.007 2.74219 23.0508C2.74219 23.2203 4.21875 26.0805 4.34453 26.168C4.46484 26.2445 5.41094 26.25 13.3297 26.2391L22.1836 26.2227L22.6211 26.0969C24.3109 25.6211 25.5469 24.4398 26.0938 22.7828C26.2633 22.2688 26.2633 22.0008 26.0992 21.8695C25.9898 21.7766 25.8859 21.7656 25.2516 21.7711C24.8578 21.7766 19.7008 21.9734 13.7891 22.2086Z" fill="#00C7BE"/>
</svg>
